<?xml version="1.0" encoding="UTF-8"?>
<svg xmlns="http://www.w3.org/2000/svg" version="1.1" viewBox="0 0 1000 1000">
  <defs>
    <style>
      .cls-1 {
        font-family: AppliedSans-Bold, AppliedSans;
        font-size: 102.49px;
      }

      .cls-1, .cls-2, .cls-3 {
        fill: #fff;
      }

      .cls-1, .cls-3 {
        font-weight: 700;
      }

      .cls-3 {
        font-family: TTMastersCondensed-Bold, 'TT Masters Condensed';
        font-size: 47px;
      }
    </style>
  </defs>
  <!-- Generator: Adobe Illustrator 28.7.9, SVG Export Plug-In . SVG Version: 1.2.0 Build 218)  -->
  <g>
    <g id="Layer_1">
      <g>
        <text class="cls-1" transform="translate(305.15 537.31) scale(1.05 1)"><tspan x="0" y="0">Zorgpartners</tspan></text>
        <text class="cls-3" transform="translate(573.48 602.96) scale(1.05 1)"><tspan x="0" y="0">Altijd de juiste match!</tspan></text>
        <circle class="cls-2" cx="165.2" cy="502.58" r="118.76"/>
        <g>
          <path class="cls-2" d="M185.74,499.99c0,4.71-.13,9.43.03,14.13.29,8.71-.45,17.44.42,26.14.15,1.51-.63,2.07-1.98,2.15-5.41.3-10.8-.05-16.18-.45-1.73-.13-1.5-1.44-1.5-2.54,0-4.47-.16-8.95.11-13.4,1.09-17.54.36-35.1.49-52.64.02-3.22.15-6.44.07-9.66-.06-2.34.91-3.03,3.19-2.93,3.83.18,7.7.27,11.52-.02,2.99-.23,4.66.97,5.87,3.49,4.48,9.31,8.99,18.59,13.53,27.87,1.22,2.49,2.61,4.89,3.94,7.38,5.38-6.99,8.44-14.99,12.89-22.2,2.87-4.66,6.05-9.15,8.34-14.16.76-1.67,2.3-2.18,4.15-2.15,3.84.06,7.7.16,11.53-.12,3.02-.22,3.74.93,3.61,3.74-.96,20.33-.16,40.71-1.33,61.04-.25,4.35-.08,8.73.11,13.08.12,2.66-.78,3.78-3.53,3.7-3.94-.11-7.9-.05-11.84.11-2.69.11-3.66-.85-3.5-3.63.73-12.44.78-24.89.2-37.34-.04-.78,0-1.56-.33-2.43-4.43,6.39-8.97,12.63-11.52,19.98-.78,2.23-1.97,3-4.25,3.17-11.46.83-11.42.87-16.42-9.44-2.14-4.42-5.08-8.4-7.6-12.85Z"/>
          <path class="cls-2" d="M84.82,527.42c4.55-4.06,8.29-8.96,13.94-11.78,2.85,3.12,5.64,6.06,9.09,8.2,8.91,5.52,20.82,2.94,22.77-9.77.7-4.56.56-9.1.57-13.66.02-7.58,0-15.15,0-22.73,0-.09-.06-.19-.1-.32-.79-.68-1.76-.33-2.65-.33-8.51,0-31.17.05-39.69.05-3.52,0-4.46-1.13-4.06-4.53.35-2.98.73-5.96.94-8.95.12-1.74.65-2.67,2.58-2.67,14.64.03,43.42,0,58.06,0,2.48,0,3.8.98,3.56,3.8-1.16,13.27-.5,26.55-.05,39.82.24,6.97-.1,13.96-2.6,20.53-4.83,12.71-16.47,19.61-30.97,19.32-11.91-.24-21.07-5.81-29.21-13.78-.44-.43-.83-.93-1.18-1.44-.34-.49-.6-1.04-1.01-1.76Z"/>
        </g>
      </g>
    </g>
  </g>
</svg>